<?xml version="1.0" standalone="no"?>
<!DOCTYPE svg PUBLIC "-//W3C//DTD SVG 20010904//EN"
 "http://www.w3.org/TR/2001/REC-SVG-20010904/DTD/svg10.dtd">
<svg version="1.0" xmlns="http://www.w3.org/2000/svg"
 width="225.000000pt" height="225.000000pt" viewBox="0 0 225.000000 225.000000"
 preserveAspectRatio="xMidYMid meet">

<g transform="translate(0.000000,225.000000) scale(0.100000,-0.100000)"
fill="#000000" stroke="none">
<path d="M957 2110 c-393 -71 -692 -350 -803 -750 -26 -93 -26 -377 0 -470 33
-120 77 -219 137 -310 139 -212 338 -354 599 -426 93 -26 377 -26 470 0 261
72 460 214 599 426 60 91 104 190 137 310 15 52 18 100 18 240 0 161 -3 182
-27 263 -54 177 -132 311 -252 432 -122 124 -265 208 -442 261 -74 22 -112 27
-238 30 -82 1 -172 -1 -198 -6z m3 -472 l45 -33 -102 -8 c-56 -4 -119 -13
-140 -21 -52 -18 -83 -65 -83 -128 0 -109 46 -154 231 -228 220 -89 286 -143
309 -256 31 -147 -43 -284 -189 -353 -49 -23 -68 -26 -161 -26 -93 0 -113 4
-170 28 -95 41 -95 41 -108 13 -8 -19 -19 -26 -40 -26 -29 0 -29 0 -36 77 -3
42 -6 123 -6 180 l0 103 29 0 c26 0 30 -6 51 -62 44 -122 121 -210 207 -239
54 -17 176 -8 209 17 56 41 69 70 69 148 0 63 -4 78 -28 115 -34 51 -64 70
-187 117 -252 97 -320 167 -320 328 0 78 31 147 90 199 50 46 92 65 168 76
101 15 115 13 162 -21z m573 6 c112 -47 161 -116 161 -229 1 -141 -74 -220
-256 -270 l-58 -16 51 -102 c124 -249 231 -363 358 -383 37 -6 41 -9 41 -35
l0 -29 -139 0 -138 0 -131 218 c-72 119 -154 249 -182 287 l-51 70 28 3 c126
11 202 40 251 96 74 84 67 195 -17 276 -59 58 -100 70 -247 70 l-119 1 -40 35
-40 36 240 -4 c211 -4 246 -7 288 -24z"/>
</g>
</svg>
